<?xml version="1.0" encoding="UTF-8" standalone="no"?>
<!-- Created with Inkscape (http://www.inkscape.org/) -->

<svg
   xmlns:dc="http://purl.org/dc/elements/1.1/"
   xmlns:cc="http://creativecommons.org/ns#"
   xmlns:rdf="http://www.w3.org/1999/02/22-rdf-syntax-ns#"
   xmlns:svg="http://www.w3.org/2000/svg"
   xmlns="http://www.w3.org/2000/svg"
   xmlns:sodipodi="http://sodipodi.sourceforge.net/DTD/sodipodi-0.dtd"
   xmlns:inkscape="http://www.inkscape.org/namespaces/inkscape"
   width="50.5275mm"
   height="64.588181mm"
   viewBox="0 0 50.5275 64.58818"
   version="1.1"
   id="svg8"
   inkscape:version="0.92.4 (5da689c313, 2019-01-14)"
   sodipodi:docname="dpad button.svg">
  <defs
     id="defs2">
	
	
	
	
<linearGradient
   id="SVGID_3_"
   gradientUnits="userSpaceOnUse"
   x1="10"
   y1="8.5205002"
   x2="10"
   y2="0.00048828131">
  <stop
     offset="0.3"
     style="stop-color:#1E1E1E"
     id="stop831" />
  <stop
     offset="1"
     style="stop-color:#5B5B5F"
     id="stop833" />
</linearGradient>
<linearGradient
   id="SVGID_4_"
   gradientUnits="userSpaceOnUse"
   x1="10"
   y1="8.5205002"
   x2="10"
   y2="0.00048828131">
  <stop
     offset="0"
     style="stop-color:#141414"
     id="stop838" />
  <stop
     offset="0.2261"
     style="stop-color:#181818"
     id="stop840" />
  <stop
     offset="0.4603"
     style="stop-color:#242425"
     id="stop842" />
  <stop
     offset="0.6982"
     style="stop-color:#373739"
     id="stop844" />
  <stop
     offset="0.9374"
     style="stop-color:#535356"
     id="stop846" />
  <stop
     offset="1"
     style="stop-color:#5B5B5F"
     id="stop848" />
</linearGradient>
</defs>
  <sodipodi:namedview
     id="base"
     pagecolor="#ffffff"
     bordercolor="#666666"
     borderopacity="1.0"
     inkscape:pageopacity="0.0"
     inkscape:pageshadow="2"
     inkscape:zoom="1.4"
     inkscape:cx="243.95327"
     inkscape:cy="97.378456"
     inkscape:document-units="mm"
     inkscape:current-layer="layer2"
     showgrid="false"
     fit-margin-top="0"
     fit-margin-left="0"
     fit-margin-right="0"
     fit-margin-bottom="0"
     inkscape:window-width="1850"
     inkscape:window-height="1016"
     inkscape:window-x="70"
     inkscape:window-y="27"
     inkscape:window-maximized="1" />
  <metadata
     id="metadata5">
    <rdf:RDF>
      <cc:Work
         rdf:about="">
        <dc:format>image/svg+xml</dc:format>
        <dc:type
           rdf:resource="http://purl.org/dc/dcmitype/StillImage" />
        <dc:title></dc:title>
      </cc:Work>
    </rdf:RDF>
  </metadata>
  <g
     inkscape:label="Layer 1"
     inkscape:groupmode="layer"
     id="layer1"
     transform="translate(-75.075733,-41.234284)"
     style="display:none">
    <g
       id="g829"
       transform="matrix(0,7.5798828,-7.5798828,0,175.53192,41.241864)"
       style="opacity:0.41800005">
		
			<linearGradient
   id="SVGID_1_"
   gradientUnits="userSpaceOnUse"
   x1="-18.096701"
   y1="-58.143101"
   x2="-11.4326"
   y2="-58.143101"
   gradientTransform="rotate(-90,28.77975,-33.62355)">
			<stop
   offset="0.3"
   style="stop-color:#0044A1"
   id="stop815" />

			<stop
   offset="1"
   style="stop-color:#5FB1DA"
   id="stop817" />

		</linearGradient>

		<path
   style="fill:url(#SVGID_1_)"
   inkscape:connector-curvature="0"
   d="M 5.55,6.589 8.521,9.921 5.55,13.253 H 1.114 C 0.499,13.253 0,12.753 0,12.138 V 7.702 C 0,7.087 0.499,6.589 1.114,6.589 Z"
   id="path820" />

		<linearGradient
   id="SVGID_2_"
   gradientUnits="userSpaceOnUse"
   x1="4.2607002"
   y1="13.2529"
   x2="4.2607002"
   y2="6.5889001">
			<stop
   offset="0.3"
   style="stop-color:#1B388A"
   id="stop822" />

			<stop
   offset="1"
   style="stop-color:#5FB1DA"
   id="stop824" />

		</linearGradient>

		<path
   style="fill:url(#SVGID_2_)"
   inkscape:connector-curvature="0"
   d="M 5.259,7.238 7.65,9.921 5.258,12.603 H 1.114 C 0.858,12.603 0.65,12.395 0.65,12.138 V 7.702 C 0.65,7.446 0.858,7.238 1.114,7.238 H 5.259 M 5.55,6.589 H 1.114 C 0.499,6.589 0,7.087 0,7.702 v 4.436 c 0,0.615 0.499,1.115 1.114,1.115 H 5.55 L 8.521,9.921 Z"
   id="path827" />

	</g>
  </g>
  <g
     inkscape:groupmode="layer"
     id="layer2"
     inkscape:label="Layer 2"
     style="display:inline"
     transform="translate(-0.76353025,-0.37039612)">
    <g
       id="g853"
       transform="matrix(7.5798828,0,0,7.5798828,-49.779128,0.37797612)"
       style="display:inline;opacity:0.28000004">
      <linearGradient
         id="linearGradient1031"
         gradientUnits="userSpaceOnUse"
         x1="10"
         y1="8.5205002"
         x2="10"
         y2="0.00048828131">
        <stop
           offset="0.3"
           style="stop-color:#1E1E1E"
           id="stop1027" />
        <stop
           offset="1"
           style="stop-color:#5B5B5F"
           id="stop1029" />
      </linearGradient>
      <path
         style="fill:url(#SVGID_3_)"
         inkscape:connector-curvature="0"
         d="M 13.333,5.55 10,8.521 6.667,5.55 V 1.114 C 6.667,0.499 7.167,0 7.782,0 h 4.436 c 0.615,0 1.115,0.499 1.115,1.114 z"
         id="path836" />
      <linearGradient
         id="linearGradient1046"
         gradientUnits="userSpaceOnUse"
         x1="10"
         y1="8.5205002"
         x2="10"
         y2="0.00048828131">
        <stop
           offset="0"
           style="stop-color:#141414"
           id="stop1034" />
        <stop
           offset="0.2261"
           style="stop-color:#181818"
           id="stop1036" />
        <stop
           offset="0.4603"
           style="stop-color:#242425"
           id="stop1038" />
        <stop
           offset="0.6982"
           style="stop-color:#373739"
           id="stop1040" />
        <stop
           offset="0.9374"
           style="stop-color:#535356"
           id="stop1042" />
        <stop
           offset="1"
           style="stop-color:#5B5B5F"
           id="stop1044" />
      </linearGradient>
      <path
         style="fill:url(#SVGID_4_)"
         inkscape:connector-curvature="0"
         d="m 12.218,0.65 c 0.256,0 0.465,0.208 0.465,0.464 V 5.259 L 10,7.649 7.317,5.259 V 1.114 C 7.317,0.858 7.526,0.65 7.782,0.65 h 4.436 m 0,-0.65 H 7.782 C 7.167,0 6.667,0.499 6.667,1.114 V 5.55 L 10,8.521 13.333,5.55 V 1.114 C 13.333,0.499 12.833,0 12.218,0 Z"
         id="path851" />
    </g>
  </g>
</svg>
