<?xml version="1.0" encoding="UTF-8" standalone="no"?>
<!-- Created with Inkscape (http://www.inkscape.org/) -->

<svg
   xmlns:dc="http://purl.org/dc/elements/1.1/"
   xmlns:cc="http://creativecommons.org/ns#"
   xmlns:rdf="http://www.w3.org/1999/02/22-rdf-syntax-ns#"
   xmlns:svg="http://www.w3.org/2000/svg"
   xmlns="http://www.w3.org/2000/svg"
   xmlns:sodipodi="http://sodipodi.sourceforge.net/DTD/sodipodi-0.dtd"
   xmlns:inkscape="http://www.inkscape.org/namespaces/inkscape"
   width="7.3960977mm"
   height="10.59548mm"
   viewBox="0 0 7.3960977 10.59548"
   version="1.1"
   id="svg8"
   inkscape:version="0.92.4 (5da689c313, 2019-01-14)"
   sodipodi:docname="fairy.svg">
  <defs
     id="defs2" />
  <sodipodi:namedview
     id="base"
     pagecolor="#ffffff"
     bordercolor="#666666"
     borderopacity="1.0"
     inkscape:pageopacity="0.0"
     inkscape:pageshadow="2"
     inkscape:zoom="2.8"
     inkscape:cx="-29.979404"
     inkscape:cy="36.572505"
     inkscape:document-units="mm"
     inkscape:current-layer="layer1"
     showgrid="false"
     fit-margin-top="0"
     fit-margin-left="0"
     fit-margin-right="0"
     fit-margin-bottom="0"
     inkscape:window-width="1850"
     inkscape:window-height="1016"
     inkscape:window-x="70"
     inkscape:window-y="27"
     inkscape:window-maximized="1" />
  <metadata
     id="metadata5">
    <rdf:RDF>
      <cc:Work
         rdf:about="">
        <dc:format>image/svg+xml</dc:format>
        <dc:type
           rdf:resource="http://purl.org/dc/dcmitype/StillImage" />
        <dc:title></dc:title>
      </cc:Work>
    </rdf:RDF>
  </metadata>
  <g
     inkscape:label="Layer 1"
     inkscape:groupmode="layer"
     id="layer1"
     transform="translate(-105.93038,-96.382707)">
    <g
       id="g971"
       transform="matrix(0.01306033,0,0,0.01306033,105.93056,96.383736)">
      <g
         id="_x35_">
	<path
   id="path815"
   d="m 525.7,419.8 c -7.8,-10 -13.4,-21.7 -21.2,-31.6 -9.5,-12 -11.1,-0.7 -14.2,7.8 -1.8,4.8 -4.1,9.3 -7.2,13.3 -9.8,12.8 -28.7,24.3 -45,17 -7.2,-3.2 -12.2,-10.7 -11.6,-18.7 0.4,-5 12.8,-26.9 14,-13.7 0.3,2.9 -1,5.6 -1.5,8.4 -2.1,14.8 13.8,17.3 23.4,11.4 10.6,-6.5 17,-18.2 19.3,-30.2 1.2,-6.3 5.6,-15.7 -1.8,-19.7 -4.7,-2.5 -9.9,0.6 -14,3 -7.3,4.2 -15.6,6.4 -24,6.5 -15.9,0.3 -32.7,-3.3 -45.5,8.8 -5.1,4.8 -9.5,11.5 -8.7,18.9 0.7,6.3 6,13.1 12.6,13.5 2.3,0.1 2.2,3.2 0,3.5 -14.7,1.7 -23.4,-13.9 -19.3,-26.9 4.8,-15.4 19.7,-26.2 35.3,-28.7 9,-1.4 18.1,-0.3 27.1,-1 7.9,-0.6 29.9,-7 16.1,-15.8 -13.1,-8.4 -29.1,-13.7 -43.9,-18.2 3.5,1.1 16.6,-8.2 19.9,-10 6.6,-3.7 13.1,-7.6 19.3,-11.9 11.5,-8 22.3,-17.2 31.4,-27.9 8.7,-10.2 15.8,-21.7 20.5,-34.3 3.9,-10.4 10,-29.5 1.1,-39.1 -3.8,-4.1 -8,-1.9 -13.3,-0.4 -5.8,1.7 -11.6,3.4 -17.6,4.3 -11.6,1.7 -23.8,1.3 -34.4,-4.4 -9.2,-4.9 -17,-13.4 -18.8,-24 -1.9,-11 0.1,-22.3 5.3,-32.1 4.9,-9.3 12.1,-17.8 21.9,-22.1 8.4,-3.7 19.1,-3.7 26.9,1.5 7.4,4.9 11.7,12.9 9.7,21.8 -1.8,7.7 -7.2,14.3 -15.6,14 -2.2,-0.1 -2.6,-3.1 -0.5,-3.8 4.8,-1.7 8.9,-7 9.1,-12.2 0.4,-9.5 -8.4,-15.1 -17.3,-14.7 -10.5,0.4 -18.7,8.4 -23.6,17.2 -5.2,9.2 -8.5,21 -4.2,31.2 3.8,9 13.8,14.7 23.3,15.5 13,1.1 24.4,-3.3 36.7,-6.4 6.6,-1.7 12.8,-6.3 16.3,-12.5 4.1,-7.2 1.6,-17.9 1.6,-26.1 0.1,-19.4 1.1,-39.6 8.9,-57.6 -2.9,0.1 -5.8,0.1 -8.6,0.3 -25,1.3 -49.7,6.3 -73.3,14.5 -12,4.2 -23.7,9.2 -35,15 -5.3,2.7 -10.5,5 -14.5,9.3 -4.1,4.5 -7.4,10.2 -10.8,15.3 -5.2,7.9 -5.8,19 -4.3,28.1 1.5,9.3 5.1,18.6 11.9,25.4 7.9,7.8 18.3,11.8 28.7,15.3 17.8,6.1 40.9,14.6 46.3,35 5.1,19.1 -10.2,38.3 -29.4,40.3 -9.8,1 -20,-3.2 -25,-12 -2.3,-4.2 -4.7,-29.4 4.7,-25.8 3.1,4.5 0.9,10.6 1.8,16 4.2,26.3 50.1,8.5 37.4,-16.4 -2.6,-5.1 -7.2,-8.9 -12,-11.9 -25.1,-16 -56.5,-19.5 -69.2,-50.2 -4.1,-10 -5.1,-20.7 -3.9,-31.4 1.2,-11.4 -1.2,-12.9 -10.4,-5.2 -5.3,4.3 -10.4,8.9 -15.3,13.6 -9.3,9 -17.9,18.6 -25.9,28.7 -17.3,22 -35.6,44.2 -44,71.4 -6.7,-10.2 -7.8,-21.8 -14.2,-32.3 -6,-9.8 -12.9,-19 -20.7,-27.4 -15.6,-17 -34.5,-31 -55.1,-41.5 -41,-20.8 -89.8,-27.6 -134.1,-13.9 -1.6,0.5 -16.7,6.7 -16.9,6.4 11.3,13 18.8,29 25.5,44.7 3.6,8.5 7.8,17.3 10.3,26.2 1.7,6.1 3.3,13 10.8,14.3 8.3,1.4 22.5,-3 30.3,-5.8 5.7,-2 11.2,-4.6 16.4,-7.8 4.2,-2.5 8.7,-5.3 10.9,-9.8 4.6,-9.2 1.2,-20.9 -2.4,-29.8 -3.8,-9.3 -10.5,-16.3 -20.6,-18.3 -9.3,-1.9 -18.7,0.9 -24.8,8.3 -6,7.4 -9,18.3 -6.3,27.5 0.3,1.1 -1.4,1.8 -1.8,0.8 -3.9,-8.7 -4.7,-18.1 -0.8,-26.9 7.9,-18.2 30.3,-25.9 48,-16.9 10.1,5.2 15.9,14.3 19.7,24.7 3.6,9.9 6.4,22.1 2.6,32.3 -4.1,11.2 -13.6,17.9 -24,23.1 -6.6,3.3 -13.4,6 -20.5,7.9 -5.3,1.4 -13.5,1 -18.3,3.8 -10.9,6.3 1.3,20.2 5.6,26.8 4.4,6.7 10.7,15.4 19.7,14.2 8.1,-1.1 12.5,-11.5 18.2,-16.7 14,-12.6 36,-21.9 53.1,-9.6 2.2,1.6 0.3,4.7 -2.1,3.6 -10.2,-4.6 -22.4,0.1 -31.2,5.8 -12.4,8 -20.1,15.6 -17.3,30.4 2.7,14.4 12.4,16.6 25.1,20.7 11.9,3.8 24.2,6.1 36.7,7.4 -14.8,15.3 -31.3,33 -24.1,55.8 1.8,5.6 5.3,10.8 7.1,16.5 3.5,11.2 4.5,23.2 3,34.8 -0.4,3.5 -5.4,3.7 -5.6,0 -0.2,-7.3 -4.4,-43.5 -14.7,-42.2 -8.2,1 -5.8,17.4 -6.2,22.8 -0.9,11.6 -1.3,23.2 -3.1,34.7 -1.4,9.3 -5.7,17.6 -12.8,23 3.8,-2.9 16.8,-2.3 21.9,-3.2 8.1,-1.4 16.1,-3.2 23.9,-5.6 15.3,-4.6 30.1,-11.5 42.6,-21.5 29.8,-23.9 40.8,-59.5 51.1,-95.2 8.7,21.4 24.9,39.3 43.9,52.6 19,13.2 40.7,22.1 62.9,28.8 54,16.3 114.9,7.3 168.7,-6.7 -11,-2.2 -20,-7.9 -26.1,-15.7 z"
   inkscape:connector-curvature="0"
   style="fill:#d6de23" />

	<path
   id="path817"
   d="m 116.6,468.4 c 0.3,0.3 0.6,0.7 1,1.2 l 3.3,3.6 c 0.7,0.5 1.5,0.7 2.2,0.6 2.3,-0.5 2.9,-1.4 3,-3.5 0,0 0,0 0,0 0,-0.1 0,-0.1 0.1,-0.2 0.1,-0.7 0.1,-1.3 0.2,-2 l -0.2,-0.2 c 0,0.2 0,0.4 -0.1,0.5 -0.2,-0.6 -0.6,-1.2 -1.2,-1.8 -1.3,-1.3 -3.2,-2.5 -3.8,-4.3 L 38.6,373 50.3,371.6 c 2.5,-0.3 3.2,-3.6 1,-4.8 l -12.6,-7.1 c -1,-0.5 -1.5,-1.7 -1.3,-2.8 l 2.9,-14.2 c 0.5,-2.5 -2.4,-4.1 -4.3,-2.4 l -10.7,9.8 c -0.8,0.8 -2,0.9 -3,0.4 L 9.7,343.4 c -2.2,-1.2 -4.7,1.1 -3.6,3.3 l 6,13.2 c 0.5,1 0.2,2.2 -0.6,3 l -10.7,9.8 c -1.8,1.7 -0.4,4.8 2.1,4.5 l 14.4,-1.7 c 1.1,-0.1 2.2,0.5 2.7,1.5 l 6,13.2 c 1,2.3 4.4,1.9 4.9,-0.6 l 2.3,-11.6 83.7,90.9 c -0.1,-0.2 -0.2,-0.3 -0.3,-0.5 z"
   inkscape:connector-curvature="0"
   style="fill:#d6de23" />

	<path
   id="path819"
   d="m 145.6,489.1 c -0.7,2.6 -1.6,5.2 -3.2,7.4 0,0 0,0 0,0 l 11.6,12.6 c 1.4,1.5 3.7,1.6 5.2,0.2 l 0.1,-0.1 c 1.5,-1.4 1.6,-3.7 0.2,-5.2 z"
   inkscape:connector-curvature="0"
   style="fill:#d6de23" />

	<path
   id="path821"
   d="m 280.6,313.6 c 0.1,-0.5 0.2,-1 0.1,-1.6 -0.1,-0.7 -0.6,-1.5 -1.3,-1.7 -1.3,-0.4 -2.5,0.5 -3.1,1.4 -3.9,5.9 -7.9,11.9 -11.8,17.8 -0.7,1 -10.1,15.2 -9.6,15.7 -14.2,-13.1 -26.2,-29.7 -37.4,-45.6 -2.3,-3.3 -4.6,-6.6 -7.2,-9.5 -0.6,-0.7 -2.2,-3 -3.2,-3.1 -0.8,-0.1 -1.9,0.6 -1.5,1.6 6.4,12.8 13.7,25 21.6,36.9 7.9,11.8 16.4,23.8 25.9,34.4 4,4.5 8.5,-9 9.6,-11 2.3,-4.2 4.6,-8.5 6.9,-12.7 3.9,-7.1 8.8,-14 10.8,-21.9 0.1,-0.3 0.2,-0.5 0.2,-0.7 z"
   inkscape:connector-curvature="0"
   style="fill:#d6de23" />

	<path
   id="path823"
   d="m 540.8,298.8 3.8,15.4 c 0.3,1.4 1.5,2.3 2.9,2.4 l 15.8,1.1 c 3.1,0.2 4.1,4.3 1.5,5.9 l -13.5,8.4 c -1.2,0.7 -1.8,2.2 -1.4,3.5 l 3.8,15.4 c 0.8,3 -2.8,5.3 -5.2,3.2 l -12.2,-10.2 c -1.1,-0.9 -2.6,-1 -3.8,-0.3 L 519,352 c -2.6,1.7 -5.9,-1 -4.7,-3.9 l 5.9,-14.7 c 0.5,-1.3 0.2,-2.8 -0.9,-3.7 l -12.2,-10.2 c -2.4,-2 -0.8,-5.9 2.3,-5.7 l 15.8,1.1 c 1.4,0.1 2.7,-0.7 3.2,-2 l 5.9,-14.7 c 1.5,-2.7 5.7,-2.4 6.5,0.6 z"
   inkscape:connector-curvature="0"
   style="fill:#d6de23" />

	<path
   id="path825"
   d="m 72.3,57 8.6,12.5 c 0.8,1.1 2.1,1.6 3.4,1.2 l 14.5,-4.3 c 2.9,-0.8 5.1,2.5 3.3,4.8 l -9.2,12 c -0.8,1.1 -0.8,2.5 -0.1,3.6 l 8.6,12.5 c 1.7,2.5 -0.7,5.6 -3.6,4.6 L 83.6,99 c -1.3,-0.4 -2.7,0 -3.5,1 l -9.2,12 c -1.8,2.4 -5.6,1 -5.5,-1.9 l 0.4,-15.2 c 0,-1.3 -0.8,-2.5 -2,-3 L 49.5,86.8 c -2.8,-1 -2.7,-5 0.1,-5.8 l 14.5,-4.3 c 1.3,-0.4 2.2,-1.5 2.2,-2.9 l 0.4,-15.2 c 0.1,-2.9 3.9,-4 5.6,-1.6 z"
   inkscape:connector-curvature="0"
   style="fill:#d6de23" />

	<path
   id="path827"
   d="m 486,572.4 3.3,14.8 c 0.3,1.3 1.4,2.3 2.7,2.4 l 15.1,1.5 c 3,0.3 3.8,4.2 1.3,5.7 l -13.1,7.7 c -1.1,0.7 -1.7,2 -1.4,3.3 l 3.3,14.8 c 0.6,2.9 -2.8,4.9 -5,3 l -11.4,-10.1 c -1,-0.9 -2.4,-1 -3.6,-0.3 l -13.1,7.7 c -2.6,1.5 -5.6,-1.1 -4.4,-3.9 l 6.1,-13.9 c 0.5,-1.2 0.2,-2.6 -0.8,-3.5 l -11.4,-10.1 c -2.2,-2 -0.6,-5.6 2.3,-5.4 l 15.1,1.5 c 1.3,0.1 2.6,-0.6 3.1,-1.8 l 6.1,-13.9 c 1.1,-2.8 5.1,-2.4 5.8,0.5 z"
   inkscape:connector-curvature="0"
   style="fill:#d6de23" />

	<path
   id="path829"
   d="m 92.6,526.9 10.7,10.7 c 0.9,0.9 2.4,1.2 3.6,0.6 l 13.5,-6.9 c 2.7,-1.4 5.5,1.5 4.1,4.1 l -6.9,13.5 c -0.6,1.2 -0.4,2.6 0.6,3.6 l 10.7,10.7 c 2.1,2.1 0.3,5.7 -2.7,5.2 l -15,-2.4 c -1.3,-0.2 -2.6,0.5 -3.2,1.6 l -6.9,13.5 c -1.4,2.7 -5.3,2 -5.8,-0.9 l -2.4,-15 c -0.2,-1.3 -1.2,-2.3 -2.6,-2.6 l -15,-2.4 c -2.9,-0.5 -3.6,-4.4 -0.9,-5.8 l 13.5,-6.9 c 1.2,-0.6 1.9,-1.9 1.6,-3.2 l -2.4,-15 c -0.2,-2.7 3.4,-4.5 5.5,-2.4 z"
   inkscape:connector-curvature="0"
   style="fill:#d6de23" />

	<path
   id="path831"
   d="m 454.9,2.7 2.5,15 c 0.2,1.3 1.3,2.3 2.6,2.5 l 15,2.2 c 2.9,0.4 3.6,4.4 1,5.8 l -13.5,7 c -1.2,0.6 -1.8,1.9 -1.6,3.2 l 2.5,15 c 0.5,2.9 -3.1,4.8 -5.2,2.7 L 447.4,45.5 c -1,-0.9 -2.4,-1.1 -3.6,-0.5 l -13.5,7 c -2.6,1.4 -5.5,-1.4 -4.2,-4.1 l 6.8,-13.6 c 0.6,-1.2 0.4,-2.6 -0.6,-3.6 L 421.5,20.1 c -2.1,-2.1 -0.3,-5.7 2.6,-5.2 l 15,2.2 c 1.3,0.2 2.6,-0.5 3.2,-1.7 l 6.8,-13.6 c 1.3,-2.6 5.3,-2 5.8,0.9 z"
   inkscape:connector-curvature="0"
   style="fill:#d6de23" />

</g>
      <g
         id="_x34_">
	<path
   id="path834"
   d="m 382.8,308.2 c -1.9,-7 -2.2,-14.2 -4.1,-21.1 -3.8,-13.8 -7.6,-27.4 -12.1,-41 -2.2,-6.6 -4.2,-13.3 -5.8,-20.2 -0.8,-3.3 -1.5,-6.6 -2,-10 -0.5,-2.8 0,-7.9 -1.2,-10.4 2.9,5.8 6.8,11.2 11.5,15.8 -3.2,-9.5 -5.7,-19.2 -7.5,-29.1 -2,-10.6 -3.2,-21.3 -3.6,-32.1 -0.7,-19 2.2,-37.6 -1.8,-56.4 -3.4,-16 -7.5,-32.1 -17.5,-45.5 C 334,51.8 328.1,46.3 321.4,42.1 318,40 298.6,35.1 297.6,33.1 266.9,-30.7 181.5,10 152,51.1 c -33.4,46.7 -40.8,104 -25.6,156 2,8.3 4.7,16.4 8.2,24.2 5,11.2 11.5,21.8 15.6,33.3 3.7,10.3 5.3,21.1 5.9,32.1 0.6,13 -0.3,26.3 -1.3,39.3 0.2,-3 4.3,-8 5.6,-10.9 1.8,-4.1 3.4,-8.3 4.8,-12.5 2.9,-8.8 3.2,-18.5 5.9,-27.1 7.1,11.3 21.9,20.8 32.7,28.3 12.4,8.7 25.6,16.2 39.4,22.4 -0.7,-2.7 -1.3,-6.1 0.7,-8.1 0.5,-0.5 1.1,-0.8 1.7,-1.2 8.6,-4.8 19.3,-5.4 28.4,-1.8 10.5,4.2 18.1,13.5 27.4,19.9 4.1,2.8 8.5,5.1 12.8,7.8 7.9,5 15,11.3 22.7,16.7 4.1,2.8 8.4,5.4 12.9,7.4 2.4,1 4.9,2 7.4,2.5 3.6,0.7 3.5,1.3 4,-1.8 0.8,-4.4 -3.5,-13 -4.8,-17.4 -1.7,-6.1 -3.5,-12.2 -4.9,-18.4 -2.9,-12.3 -7.6,-23.9 -9.1,-36.8 8.1,8.4 16.9,16.2 26.3,23.2 1.4,1 7.2,5.7 8.5,2.3 0.4,-1.1 0,-2.3 -0.4,-3.4 -2.8,-7.1 -5.5,-14.2 -8.3,-21.4 -1.2,-3 -2.2,-6.1 -3.2,-9.1 -0.6,-1.9 -0.9,-7.6 -1.9,-8.9 5.1,7.5 12.8,14.5 19.4,20.5 z"
   inkscape:connector-curvature="0"
   style="fill:#66bb46" />

</g>
      <g
         id="_x33_">
	<path
   id="path837"
   d="m 321.5,734.6 c -2.7,-5.6 -6.7,-10.1 -12.7,-11.9 2.3,11.5 4.3,27.1 -4.7,31.7 -0.7,0.4 -1.6,0.6 -2.4,0.8 -9.7,1.7 -14.5,-10.3 -17.6,-18.3 0,0.3 0,0.6 0,0.9 -0.2,23.6 6.6,51.7 23.8,69.1 2.4,2.4 5.4,4.8 8.6,4.2 3.7,-0.6 5.6,-4.7 6.7,-8.3 5,-15.8 4,-31.9 3.1,-48 -0.4,-6.1 -1.7,-13.8 -4.8,-20.2 z"
   inkscape:connector-curvature="0"
   style="fill:#00a551" />

	<path
   id="path839"
   d="m 510.1,724.9 c -2.5,-11 -7,-21.5 -13,-31.1 -4.9,-7.7 -12,-18.4 -20.1,-22.8 -5.1,-2.8 -10.7,-4.2 -15.4,-2.7 -1.6,0.5 -3.1,1.3 -4.6,2.2 5.7,4.5 11.8,8.8 13.2,16.3 2.4,12.6 -9.9,11.1 -21.5,7.5 11,18.6 29.5,36.9 51,41.6 3,0.7 6.6,1 8.9,-1.1 2.7,-2.3 2.3,-6.5 1.5,-9.9 z"
   inkscape:connector-curvature="0"
   style="fill:#00a551" />

	<path
   id="path841"
   d="m 334.3,89.7 c 0,-0.8 -0.1,-1.4 -0.1,-1.7 -1.4,-8.4 -3.7,-17.7 -9.4,-24.3 -3,-3.4 -6.3,-7.7 -9.9,-10.3 -4.6,-3.2 -11.9,-7.8 -17.8,-6.2 0.6,2.7 3.5,3.8 5.7,4.9 3.1,1.5 5.6,3.6 8.4,5.8 2.5,2 4.9,3.9 7,6.3 5.4,6.2 7.7,14.5 9,22.6 0.6,3.9 1.2,27.6 6.1,28 1.4,0.2 1.4,-18.8 1,-25.1 z"
   inkscape:connector-curvature="0"
   style="fill:#00a551" />

	<path
   id="path843"
   d="m 264.4,69.1 c -2.7,1.9 -5,4 -8,5.5 -3.8,1.9 -8.2,3.1 -12.3,4.2 -9.1,2.5 -18.3,3.4 -27.7,3.6 -9,0.3 -18.2,0.6 -27,3.1 -6.5,1.9 -13.2,4.8 -16.3,11.3 -0.6,1.2 7.4,-1.8 7.7,-2 13.6,-7.9 28.1,-7.5 43.2,-8.1 8.7,-0.4 17.3,-1.9 25.6,-4.4 6,-1.8 14.5,-4.3 17.6,-10.4 1,-1.6 -0.9,-4.1 -2.8,-2.8 z"
   inkscape:connector-curvature="0"
   style="fill:#00a551" />

	<path
   id="path845"
   d="m 265.1,44.1 c -2.7,1 -4.9,2.7 -7.4,4.2 -2.8,1.7 -5.9,2.9 -8.9,4 -6.5,2.3 -13.3,3.6 -20.1,4.5 -14.7,2 -29.6,2.4 -43.6,7.6 -19.6,7.4 -41,28.2 -42,50.3 1.5,0 2.6,-1.2 3.4,-2.4 3.3,-4.6 4.8,-10.2 7.9,-14.8 4.2,-6.4 9.9,-11.6 15.8,-16.4 10.8,-8.8 24.4,-15.5 38.3,-17 8.8,-0.9 17.6,-1.3 26.3,-2.6 6.2,-0.9 12.3,-2.3 18.1,-4.6 5.1,-2 11.8,-4.7 14.8,-9.5 0.9,-1.6 -0.8,-3.9 -2.6,-3.3 z"
   inkscape:connector-curvature="0"
   style="fill:#00a551" />

	<path
   id="path847"
   d="m 272.3,28 c -12.5,-5.7 -26.3,-8.2 -39.8,-5.5 -4.9,1 -41.5,12.9 -38.3,19.3 6.9,-2.5 13.7,-5.1 20.6,-7.6 6.3,-2.3 12.6,-4.7 19.3,-5.7 12.7,-2.1 24.1,1.4 36.1,4.7 3,0.8 5.1,-3.9 2.1,-5.2 z"
   inkscape:connector-curvature="0"
   style="fill:#00a551" />

	<path
   id="path849"
   d="m 324.7,173.4 c -1.4,-12 -4.9,-23.8 -8,-35.4 -1.5,-5.8 -2.9,-11.6 -3.9,-17.5 -1.1,-6.3 -1,-12.6 -1.9,-18.9 -0.3,-1.6 -2.8,-1.5 -3.1,0 -2.2,8.8 0.1,17.4 1.8,26 1.3,6.4 1.1,12.8 2.6,19.1 4.2,17.5 6.3,33.8 1.5,51.5 -2.5,9.3 -17.2,38.4 -8.4,46.2 5.3,-11.4 10.4,-23.6 14.9,-35.4 4.4,-11.5 5.9,-23.3 4.5,-35.6 z"
   inkscape:connector-curvature="0"
   style="fill:#00a551" />

	<path
   id="path851"
   d="m 349.8,292.3 c -4.9,-11.7 -3.6,-25 -1.3,-37.5 2.3,-12.7 5.6,-25.5 4,-38.3 -0.7,-5.8 -2.4,-11.4 -4,-17 -4.3,-14.5 -9,-28.9 -12,-43.8 -1.5,-7.3 -1.9,-14.7 -2.4,-22 0,-0.6 -1,-0.8 -1.1,-0.1 -2.6,12.4 0.5,25.9 3.3,38 3.4,14.5 6.8,28.9 7.5,43.8 0.7,14.9 -2.2,29.3 -3.5,44.1 -0.8,9.6 -2.7,30.7 9.8,33.5 -0.2,-0.3 -0.3,-0.5 -0.3,-0.7 z"
   inkscape:connector-curvature="0"
   style="fill:#00a551" />

	<path
   id="path853"
   d="m 167.5,246.3 c -3,-7.7 -7.3,-15 -11.5,-22.1 -5.2,-8.9 -10.3,-17.9 -13.7,-27.7 -1.7,-4.9 -3,-10.1 -3.5,-15.3 -0.3,-2.6 0,-5.2 -0.2,-7.8 0,-0.1 -1.3,-5.6 -2,-3.7 -3.8,9.9 -3.3,21.1 0,31.2 5,15.5 17.8,27.1 24.3,41.9 1.8,4.1 3.4,8.4 4.6,12.7 1.3,4.5 1.8,9.2 3.1,13.6 0.4,1.4 2.7,1.6 3,0 1.6,-7.4 -1.4,-15.8 -4.1,-22.8 z"
   inkscape:connector-curvature="0"
   style="fill:#00a551" />

	<path
   id="path855"
   d="m 191,268.7 c -0.6,-4.1 -2,-8.1 -3.5,-11.9 -2.8,-7 -5.8,-10.3 -11.4,-14.9 -2.1,-1.7 -4.2,-4 -6.9,-4.4 2.2,4.4 5.6,8.1 8.6,12.1 4.4,6 7,11.8 8.8,18.9 0.8,3.2 0.8,6.8 2.3,9.6 0.6,1.1 2,0.7 2.4,-0.3 0.9,-2.9 0.1,-6.2 -0.3,-9.1 z"
   inkscape:connector-curvature="0"
   style="fill:#00a551" />

	<path
   id="path857"
   d="m 306.2,171.5 c -0.6,-1.6 -2.8,-1.4 -3,0.4 -0.4,3.9 -0.2,7.7 -0.6,11.6 -0.4,4.1 -1.6,8.2 -2.9,12.2 -2.7,8.4 -6.9,16.1 -10.7,24 -6.8,14.1 -15.7,34.5 -8.1,50 1.4,-22.2 15.5,-41.5 21.6,-62.9 2.8,-9.9 7.7,-25.3 3.7,-35.3 z"
   inkscape:connector-curvature="0"
   style="fill:#00a551" />

	<path
   id="path859"
   d="m 329.3,232 c 1.1,-4.7 2.8,-8.7 2.8,-13.5 -1.8,-0.3 -3.3,1.4 -4.3,3 -4.4,7.6 -6.6,16.4 -6.4,25.1 0.1,5.9 1.3,19.2 6.9,22.2 0.9,-7.5 -1.6,-16.5 -1,-24.6 0.3,-4 1,-8.1 2,-12.2 z"
   inkscape:connector-curvature="0"
   style="fill:#00a551" />

	<path
   id="path861"
   d="m 460.5,504.6 c 2.1,-6.7 3.4,-13.9 3.7,-16.2 0.1,-1 0.2,-2 -0.2,-2.9 -0.5,-1 -1.5,-1.6 -2.4,-2.2 -20.3,-11.2 -41.6,-19.6 -60.5,-33.5 -19.5,-14.2 -38.7,-35.2 -50.8,-56.1 -6.9,-12 -10,-25.6 -14.2,-38.7 -2,-6.2 -4.1,-12.9 -6.9,-18.7 -5.3,2.2 -7.9,12.9 -9.9,18.1 -19,-26.6 -17.4,-59 -21,-89.8 -2.6,6.9 -5.4,13.8 -7.4,21 -1.2,4.4 -7,23.1 -3.6,26.8 -3.9,-4.2 -7.3,-9.1 -10.1,-14.4 -1.7,-3.2 -3.3,-6.6 -4.6,-10.2 -4.6,10.6 -10.3,20.8 -16.1,31.1 -0.9,1.6 -2.4,3.4 -4.1,2.9 -15.1,-17 -24.7,-37.7 -40.1,-54.5 -3.6,3.4 -11.3,4.1 -14,7.4 -2.8,3.6 0.6,16.5 1,21.2 1.3,14.3 2.6,28.6 3.4,43 1.6,28.5 1.3,57.4 -4.4,85.5 -7.4,36.6 -24.3,72.6 -39.6,106.3 -0.7,1.5 -1.4,3.2 -1.2,4.9 0.1,1.1 0.7,2.1 1.2,3 2.3,4 8.2,13.8 13.7,13.7 6.8,0 10.9,-11.7 13.5,-16.9 7.4,-14.3 12.6,-29.8 15.5,-45.7 -0.3,16.2 -6.8,31.3 -12.9,46.1 -2.8,6.7 -8.1,15.5 -8.6,22.8 -0.6,9.4 4.2,5.4 12,10.4 7.6,4.9 8.5,15.3 15.3,21.3 7.2,-6 9.6,-26.7 12.1,-36 3.5,-12.6 6.6,-25.4 9.4,-38.2 1.4,23.7 -5.5,47.1 -8.4,70.7 -0.3,2.8 -0.6,5.6 0.1,8.3 2.1,7.6 10.1,8.8 16.3,5.5 3.9,-2.1 6.8,-5.8 11,-7.2 11.2,-3.7 19.2,11.1 29.7,16.3 6.7,3.3 26.7,3.4 30.8,-4.8 0.8,-1.7 0.8,-3.7 0.6,-5.5 -0.3,-4.9 -0.6,-9.8 -1,-14.6 -1.1,-13.7 -3,-27.2 -5.6,-40.7 4.9,7.1 7.2,15.7 9.4,24 2.6,9.8 5.2,19.5 7.8,29.3 5.3,-2.3 11.2,-4 16.8,-5 15.8,-2.8 63.1,11.2 63.5,-17 0.1,-5.1 -1.7,-10.1 -3.1,-15 -4.4,-14.9 -6.3,-30.5 -6.8,-46.1 5.4,11.7 10.8,23.3 16.1,35 6.3,13.8 12.4,14.2 25.2,7.9 8,-4 22.7,-14.1 19.3,-25.4 -0.7,-2.2 -2.6,-3.7 -4.4,-5.1 -19.7,-15 -37.7,-32.2 -53.5,-51.3 16.4,17.3 37.4,29.5 58.1,41.5 4,2.6 7.5,-4.5 9.9,-12.3 z"
   inkscape:connector-curvature="0"
   style="fill:#00a551" />

</g>
      <g
         id="_x32_">
	<path
   id="path864"
   d="m 296.4,647.2 c -1.8,-11.8 -3.7,-23.5 -5.5,-35.3 -5.4,0.2 -10.7,-0.7 -13.6,-2.1 -10.6,-5.2 -18.5,-20 -29.7,-16.3 -1.4,0.4 -2.6,1.1 -3.8,2 7.9,47.2 20.8,93.9 38.9,138.1 3.1,7.4 7.7,23.7 18.9,21.7 0.8,-0.1 1.6,-0.4 2.4,-0.8 11.9,-6.1 4.7,-31.7 2.7,-41.1 -4.5,-21.8 -6.9,-44.2 -10.3,-66.2 z"
   inkscape:connector-curvature="0"
   style="fill:#fbc8a1" />

	<path
   id="path866"
   d="m 470.2,686.8 c -1.5,-7.8 -7.9,-12.1 -13.8,-16.8 -1.9,-1.5 -3.9,-2.7 -5.9,-4 -8.5,-5.3 -16.7,-11.1 -25,-16.4 -10.4,-6.7 -25.2,-13.9 -31.3,-25.3 -4.3,-8 -8.5,-15.8 -12.1,-24.2 -1,-2.3 -1.9,-4.7 -2.7,-7.1 -15,1.6 -34.3,-2.2 -43.4,-0.6 -0.9,0.2 -1.9,0.4 -2.8,0.6 7.8,14.3 15.8,28.6 23.8,43.1 14.9,27 46.6,41.6 74.4,51.6 7.3,2.7 42.8,19.7 38.8,-0.9 z"
   inkscape:connector-curvature="0"
   style="fill:#fbc8a1" />

	<path
   id="path868"
   d="m 275.7,295.2 c 0.5,1 1,1.9 1.5,2.9 -0.5,-1 -1,-1.9 -1.5,-2.9 z"
   inkscape:connector-curvature="0"
   style="fill:#fbc8a1" />

	<path
   id="path870"
   d="m 292.5,280.3 c 0.2,-0.5 0.4,-1.1 0.5,-1.6 -0.1,0.5 -0.3,1 -0.5,1.6 z"
   inkscape:connector-curvature="0"
   style="fill:#fbc8a1" />

	<path
   id="path872"
   d="m 291.7,282.9 c 0.1,-0.4 0.3,-0.8 0.4,-1.2 -0.2,0.4 -0.3,0.8 -0.4,1.2 z"
   inkscape:connector-curvature="0"
   style="fill:#fbc8a1" />

	<path
   id="path874"
   d="m 183,225 c 11.8,9.7 29.1,18.6 44.9,17.9 6.1,-0.3 12.8,-1.4 18.3,-4 -2.9,3.7 -6.9,6.7 -11.3,8.4 -1.4,0.6 -3.1,1.1 -3.8,2.5 -0.3,0.6 -0.4,1.2 -0.5,1.8 -1.1,5.7 -3.2,10.3 -8.2,13.3 -2.5,1.5 -5.1,3.4 -7.5,5.4 14,16.2 23.4,35.6 37.6,51.7 1.7,0.5 3.2,-1.3 4.1,-2.9 5.8,-10.2 11.5,-20.5 16.1,-31.1 -5.5,-14.8 -7.4,-31.4 -5.4,-46 0.6,-4.1 1.8,-8.1 3.2,-12 5,-14.6 14.1,-28 19.3,-42.8 6.3,-18.1 1.9,-32.9 -4.5,-50.2 -0.7,-1.6 -1.3,-3.2 -1.8,-4.8 -0.3,-0.9 -0.6,-1.7 -0.9,-2.6 -3.9,-10.9 -5,-22.5 0.2,-33 -11.2,-0.2 -21.7,7.1 -33.1,7.3 -16,0.3 -32.1,-0.7 -47.9,1.4 -15.9,2.1 -32.8,8.3 -42.8,21.5 -11.8,15.6 -7.8,40.9 -2.6,58.6 4.5,15.3 14.1,29.3 26.6,39.6 z"
   inkscape:connector-curvature="0"
   style="fill:#fbc8a1" />

	<path
   id="path876"
   d="m 273.1,289.2 c 0.2,0.6 0.5,1.2 0.7,1.8 -0.2,-0.6 -0.4,-1.2 -0.7,-1.8 z"
   inkscape:connector-curvature="0"
   style="fill:#fbc8a1" />

	<path
   id="path878"
   d="m 274.4,292.3 c 0.3,0.6 0.6,1.3 0.9,1.9 -0.3,-0.7 -0.6,-1.3 -0.9,-1.9 z"
   inkscape:connector-curvature="0"
   style="fill:#fbc8a1" />

	<path
   id="path880"
   d="m 202.7,339 c -0.8,-14.3 -2.1,-28.7 -3.4,-43 -0.2,-2.6 -1.4,-7.8 -1.9,-12.5 -8.7,9.3 -14,20.5 -19.2,32.2 -10.1,22.8 -18.5,46.3 -27.4,69.6 -8.3,21.7 -13.2,44.8 -22.6,66.2 -1.5,3.4 -7.1,5.6 -7.4,9.2 -0.3,2.7 2.4,4.2 4.1,5.9 0.6,0.6 1,1.2 1.2,1.8 0,-0.3 0.1,-0.6 0.1,-0.9 0,-0.1 0.1,-0.2 0.2,-0.5 -0.1,1 -0.2,2 -0.3,3 0,0.1 0,0.1 -0.1,0.2 0,0 0,0 0,0 -0.2,2.1 -0.8,3 -3,3.5 -2.6,0.5 -4.9,-3.7 -6.5,-5.4 1.8,1.9 -2.1,8 -2.6,9.9 -0.9,3.7 0,11.3 4.1,13.1 0.5,0.2 1,0.3 1.5,0.6 2.1,1.1 1.9,4.3 3.6,6 2,2 5.4,1 8,2 1.3,0.5 2.5,1.6 3.9,1.7 2.4,0.1 6,-3.4 7.4,-5.3 1.9,-2.6 2.9,-5.8 3.6,-8.8 2.3,-9.8 1.9,-20.5 5.2,-30.3 13.4,-39.3 31.8,-76.8 51.8,-113.2 -0.1,-1.6 -0.2,-3.3 -0.3,-5 z"
   inkscape:connector-curvature="0"
   style="fill:#fbc8a1" />

	<path
   id="path882"
   d="m 467,456.8 c -0.3,-2.2 -0.7,-4.4 -1.3,-6.6 -4,-15.2 -14.3,-29.8 -23.1,-42 -14.1,-19.6 -29.9,-37.8 -45.7,-55.9 -24.2,-27.8 -52,-51.9 -80.4,-75 -0.5,-0.4 -0.9,-0.8 -1.4,-1.2 -5.4,-4.7 -10.2,-10 -16.8,-11.9 -1.3,3.6 -2.7,7.1 -4,10.7 1.3,-3.5 2.6,-6.9 3.9,-10.4 3.6,30.7 2.1,62.9 20.8,89.5 0.2,-0.2 0.4,-0.4 0.6,-0.6 1.9,-5.4 4.5,-14.8 9.3,-17.1 0.2,-0.6 0.3,-1.1 0.5,-1.7 25.8,23.6 53.9,44.6 79.2,69.4 4.8,4.7 9.5,9.6 12.6,15.7 1.7,3.2 2,6.6 2.7,10.2 1.1,5.9 2.5,16.3 7.7,19.9 0.4,0.3 0.8,0.5 1.3,0.5 1,-0.1 1.5,-1.3 1.8,-2.2 1.1,-4 1.6,-7.7 1.7,-11.9 5.7,7.3 12.3,14.1 19.5,20 4.3,3.8 12.5,11 11.1,0.6 z"
   inkscape:connector-curvature="0"
   style="fill:#fbc8a1" />

	<path
   id="path884"
   d="m 294.1,275.6 c -0.2,0.7 -0.5,1.3 -0.7,2 0.2,-0.6 0.5,-1.3 0.7,-2 z"
   inkscape:connector-curvature="0"
   style="fill:#fbc8a1" />

</g>
      <g
         id="_x31_">
	<path
   id="path887"
   d="m 183.6,175.1 c 6.3,0 12.2,1.4 17.2,3.8 0.8,-3.7 1.2,-7.7 1.2,-11.9 0,-18.5 -8.2,-33.5 -18.4,-33.5 -10.1,0 -18.4,15 -18.4,33.5 0,4.2 0.4,8.2 1.2,11.9 5,-2.4 10.9,-3.8 17.2,-3.8 z"
   inkscape:connector-curvature="0"
   style="fill:#ffffff" />

	<path
   id="path889"
   d="m 251.7,176.1 c 6.6,0 12.8,1.5 18.1,4 0.8,-3.9 1.3,-8.1 1.3,-12.6 0,-19.5 -8.7,-35.3 -19.3,-35.3 -10.7,0 -19.3,15.8 -19.3,35.3 0,4.4 0.5,8.7 1.3,12.6 5,-2.5 11.2,-4 17.9,-4 z"
   inkscape:connector-curvature="0"
   style="fill:#ffffff" />

	<path
   id="path891"
   d="m 186.4,149 c -2.2,0 -4.2,0.7 -6,2 l 4.3,11.7 -8.4,-7 c -1.6,2.8 -2.5,6.3 -2.5,10 0,3.8 1,7.2 2.5,10 2.4,-0.4 4.9,-0.7 7.4,-0.7 4.3,0 8.5,0.7 12.3,1.9 2,-3 3.3,-6.9 3.3,-11.2 -0.1,-9.2 -5.9,-16.7 -12.9,-16.7 z"
   inkscape:connector-curvature="0"
   style="fill:#652d90" />

	<path
   id="path893"
   d="m 254.6,148.6 c -1.9,0 -3.7,0.5 -5.4,1.5 l 4.6,12.6 -9.4,-7.8 c -2,3.1 -3.2,7 -3.2,11.4 0,4 1,7.6 2.7,10.5 2.5,-0.5 5.1,-0.7 7.8,-0.7 4.6,0 8.9,0.7 12.9,2 2.2,-3.1 3.5,-7.3 3.5,-11.8 0,-9.8 -6.1,-17.7 -13.5,-17.7 z"
   inkscape:connector-curvature="0"
   style="fill:#652d90" />

	<path
   id="path895"
   d="m 255.1,210.5 c -0.1,-0.9 -0.7,-1.5 -2.2,-1.6 -1.7,-0.1 -2.4,2 -3.6,3 -1.7,1.5 -4.2,2.4 -6.3,3 -1.9,0.5 -3.9,0.8 -5.8,1.1 -4.2,0.5 -8.6,0.5 -12.8,1.3 -4.3,0.9 -8.8,3.8 -13.1,3.3 -1.1,-0.1 -2.7,-1.7 -3.4,-0.1 -0.4,0.8 0.8,2.5 1.4,3 2,1.9 5.1,3.2 7.7,4.1 6.1,2.2 12.9,2.4 19.1,0.6 6.2,-1.8 11.7,-5.7 15.6,-10.8 0.8,-1.1 3.6,-4.8 3.4,-6.9 z"
   inkscape:connector-curvature="0"
   style="fill:#ec1c24" />

	<path
   id="path897"
   d="m 217.1,198.9 c -1.2,-1.3 -2.3,-2.6 -3.5,-3.8 -2.3,-2.5 -0.8,-4.2 0.5,-6.7 0.6,-1.3 2.1,-3.4 2.1,-4.9 0.1,-1.6 -1.5,-1.5 -2.8,-0.7 -3.1,2 -5.8,6.3 -5.9,10 -0.1,2.7 1.9,5 4,6.4 1.2,0.8 2.6,1.8 4.1,2.1 0.6,0.1 1.5,0.3 2.1,-0.1 1.1,-1 0.2,-1.5 -0.6,-2.3 0.1,0 0,0 0,0 z"
   inkscape:connector-curvature="0"
   style="fill:#8a5d3b" />

	<path
   id="path899"
   d="m 187,116.9 c -3.8,-1.8 -8.5,0.3 -12.1,2 -4.7,2.1 -8.1,5.5 -10.7,9.8 -0.7,1.2 0.9,2.4 1.9,1.5 3.1,-2.7 6.9,-5.1 10.7,-6.7 3.2,-1.3 7.3,-0.9 10.2,-2.8 1.2,-0.9 1.5,-3.1 0,-3.8 z"
   inkscape:connector-curvature="0"
   style="fill:#231f20" />

	<path
   id="path901"
   d="m 249.4,116.9 c 3.8,-1.8 8.5,0.3 12.1,2 4.7,2.1 8.1,5.5 10.7,9.8 0.7,1.2 -0.9,2.4 -1.9,1.5 -3.1,-2.7 -6.9,-5.1 -10.7,-6.7 -3.2,-1.3 -7.3,-0.9 -10.2,-2.8 -1.2,-0.9 -1.5,-3.1 0,-3.8 z"
   inkscape:connector-curvature="0"
   style="fill:#231f20" />

	<path
   id="path903"
   d="m 275.1,140.7 c -0.2,0 -0.5,0.1 -0.6,0.1 -1.4,0.2 -2.8,0.4 -4.3,0.2 -0.9,-0.1 -2.2,-0.2 -2.8,-1 -0.6,-0.7 -0.2,-0.8 0.4,-1.3 1,-0.7 2,-1.4 2.8,-2.4 0.3,-0.4 1.9,-1.7 1.5,-2.3 -0.3,-0.5 -2,0.3 -2.5,0.4 -1.1,0.3 -2.2,0.5 -3.3,0.6 -1.1,0.1 -2.8,0.4 -3.9,-0.2 -1.6,-0.8 -0.5,-1.9 0,-3.3 0.2,-0.5 0.9,-2 0.3,-2.6 -0.4,-0.4 -1.2,0 -1.7,0.2 -1.8,0.9 -3.4,2.2 -5.1,3.3 -0.4,0.3 -0.6,0.3 -0.1,0.6 1.1,0.7 2.2,1.1 3.2,1.9 1,0.8 1.9,1.6 2.7,2.5 1,1.1 1.8,2.2 2.5,3.4 0.4,0.6 0.7,1.3 1.1,2 0.3,0.5 0.5,1.2 0.9,1.6 0.4,0.3 0.9,0.4 1.4,0.4 2.9,0.2 6.3,-1 8.4,-3.1 1.9,-1.2 0.2,-1.2 -0.9,-1 z"
   inkscape:connector-curvature="0"
   style="fill:#231f20" />

	<path
   id="path905"
   d="m 161.6,141 c 0.2,0 0.4,0.1 0.6,0.1 1.3,0.2 2.7,0.4 4,0.2 0.8,-0.1 2.1,-0.2 2.7,-0.9 0.5,-0.6 0.2,-0.8 -0.4,-1.2 -0.9,-0.7 -1.9,-1.3 -2.7,-2.2 -0.3,-0.3 -1.8,-1.6 -1.4,-2.1 0.3,-0.5 1.9,0.2 2.3,0.3 1,0.2 2,0.4 3,0.5 1.1,0.1 2.6,0.3 3.6,-0.1 1.5,-0.7 0.5,-1.8 0,-3.1 -0.2,-0.5 -0.8,-1.9 -0.3,-2.4 0.4,-0.4 1.2,0 1.5,0.2 1.7,0.8 3.2,2.1 4.8,3.1 0.4,0.3 0.6,0.3 0.1,0.6 -1,0.6 -2,1.1 -3,1.8 -0.9,0.7 -1.7,1.5 -2.5,2.4 -0.9,1 -1.7,2.1 -2.4,3.2 -0.4,0.6 -0.7,1.2 -1,1.9 -0.2,0.5 -0.4,1.1 -0.9,1.5 -0.4,0.3 -0.8,0.4 -1.3,0.4 -2.7,0.2 -5.9,-1 -7.9,-2.9 -1.4,-1.5 0.1,-1.5 1.2,-1.3 z"
   inkscape:connector-curvature="0"
   style="fill:#231f20" />

	<path
   id="path907"
   d="m 448.2,693.1 c 0.1,-6.2 -0.5,-12.5 -1.3,-18.6 2.7,-1.7 5.3,-3.7 7.7,-5.7 -1.3,-0.9 -2.6,-1.7 -4,-2.6 -0.1,0 -0.1,-0.1 -0.2,-0.1 -1.4,1.2 -2.9,2.3 -4.4,3.3 -0.4,-2.4 -0.9,-4.7 -1.5,-7.1 -1.9,-1.3 -3.8,-2.5 -5.7,-3.8 1.1,4.1 2.1,8.3 2.9,12.4 0.1,0.4 0.1,0.8 0.2,1.2 -0.5,0.3 -0.9,0.6 -1.4,0.8 -2.5,1.4 -5,2.7 -7.6,3.8 -0.4,-4.1 -0.9,-8.2 -1.6,-12.3 -0.1,-0.6 -0.2,-1.1 -0.3,-1.7 2.4,-1.5 4.7,-3 7,-4.6 -1.3,-0.9 -2.6,-1.7 -3.9,-2.6 -1.3,0.9 -2.7,1.8 -4,2.7 -0.4,-2.1 -0.9,-4.2 -1.5,-6.3 -1.1,-0.7 -2.1,-1.4 -3.2,-2.1 -0.6,-0.4 -1.3,-0.8 -2,-1.3 1,3.7 1.9,7.4 2.7,11.2 0.1,0.3 0.1,0.6 0.2,0.9 -1,0.6 -2,1.2 -3,1.8 -7.9,4.7 -16.6,9.1 -25.8,10.9 1.4,0.8 2.9,1.5 4.3,2.3 7.7,-1.6 15.1,-4.9 22.3,-8.8 1,-0.6 2.1,-1.1 3.1,-1.7 0.8,4.4 1.4,8.9 1.8,13.4 -4.2,1.6 -8.5,2.7 -12.9,3.7 2.2,0.9 4.5,1.8 6.7,2.7 2.2,-0.6 4.5,-1.2 6.7,-2 0.1,1.5 0.2,3 0.3,4.6 0.6,0.2 1.1,0.4 1.7,0.6 0.5,0.2 1.2,0.5 2.1,0.8 0,-0.1 0,-0.1 0,-0.2 0,-2.4 -0.1,-4.8 -0.3,-7.2 3.2,-1.2 6.3,-2.7 9.4,-4.3 0.7,5.2 1.2,10.5 1.4,15.8 1.3,0.5 2.7,0.9 4.1,1.4 0,-0.6 0,-1 0,-1.3 z"
   inkscape:connector-curvature="0"
   style="fill:#00a551" />

	<path
   id="path909"
   d="m 309,723.8 c -2.2,0.6 -4.5,1 -6.7,1.3 1.9,-2.4 3.7,-5 5.4,-7.6 -0.4,-1.6 -0.7,-3 -0.9,-4.2 -0.1,-0.7 -0.3,-1.3 -0.4,-2 -2.1,3.6 -4.3,7.1 -6.7,10.4 -0.9,1.3 -1.9,2.6 -3,3.8 -5.8,0.2 -11.5,-0.7 -17,-2.5 0.1,-0.1 0.2,-0.2 0.3,-0.3 4.5,-3.7 8.7,-7.8 12.5,-12.2 4.2,0.6 8.5,0.8 12.7,0.6 0.3,0 0.7,0 1.1,-0.1 -0.3,-1.4 -0.6,-2.9 -0.9,-4.3 -0.9,0.1 -1.7,0.1 -2.6,0.2 -2.4,0.1 -4.8,0 -7.2,-0.2 0.4,-0.5 0.8,-1.1 1.2,-1.6 2.3,-3.1 4.5,-6.3 6.6,-9.5 -0.4,-2.4 -0.8,-4.9 -1.2,-7.4 -3.4,6 -7.3,11.8 -11.5,17.2 -0.2,0.2 -0.3,0.4 -0.5,0.6 -6.7,-1.1 -13.3,-3.1 -19.8,-5.3 0.5,1.5 1,3 1.5,4.4 5,1.8 10.1,3.4 15.3,4.5 -3.1,3.6 -6.4,6.9 -9.9,10 1,2.5 1.9,5 2.9,7.5 4.1,1.3 8.4,2.1 12.8,2.4 -2.7,2.8 -5.6,5.4 -8.7,7.9 0.4,1 0.8,2.1 1.3,3.3 4.6,-3.1 8.9,-6.8 12.7,-11 3.9,-0.1 7.7,-0.7 11.5,-1.7 -0.2,-1.4 -0.5,-2.9 -0.8,-4.2 z"
   inkscape:connector-curvature="0"
   style="fill:#00a551" />

</g>
    </g>
  </g>
</svg>
